<svg xmlns="http://www.w3.org/2000/svg" id="Layer_1" viewBox="0 0 134.14 128.67"><defs><style>.cls-1{fill:#fff;}.cls-2,.cls-3{fill:#52a441;}.cls-3{isolation:isolate;opacity:.3;}</style></defs><path class="cls-2" d="m109.24,126.64h-62.3c-13.8,0-24.9-11.2-24.9-24.9h0v-62.3c0-13.8,11.2-24.9,24.9-24.9h62.3c13.8,0,24.9,11.2,24.9,24.9h0v62.3c.1,13.8-11.1,24.9-24.9,24.9h0Z"></path><path class="cls-3" d="m110.84,104.24l-45,21.4c-15.5,7.4-34.1.8-41.5-14.7L3.04,66.04c-7.4-15.5-.8-34.1,14.7-41.5L62.64,3.04c15.5-7.4,34.1-.8,41.5,14.7h0l21.4,45c7.4,15.6.8,34.1-14.7,41.5Z"></path><g id="OfBx1L.tif"><g><path class="cls-1" d="m73.83,34.53c2.05-1,3.71-.93,5.75.06,9.55,4.61,19.18,9.06,28.77,13.59.99.47,2.36.75,2.32,2.18-.03,1.06-1.38,1.68-2.37,2.15-9.93,4.69-19.88,9.34-29.81,14.05-1.28.61-2.37.65-3.65.03-10.13-4.81-20.28-9.58-30.42-14.34-.22-.1-.47-.26-.72-.44-.67-.48-.66-1.47.02-1.94,1.78-1.23,22.43-11.59,30.12-15.34Z"></path><path class="cls-1" d="m58.4,63.64c1.42-.69,2.66-.74,4.09-.03,4.02,1.97,8.11,3.78,12.13,5.74,1.33.65,2.44.77,3.83.08,4.08-2.02,8.24-3.85,12.35-5.81,1.24-.59,2.37-.78,3.68-.15,4.78,2.3,14.95,7.06,15.2,7.22.76.48,1.4,1.13.85,2.04-.32.52-.59.96-.59.96,0,0-.86-.72-1.81-1.25-5.36-2.95-10.73-2-14.52,2.15-1.6,1.76-2.57,4-2.89,6.36-.16,1.21-.25,1.79-.25,1.79,0,0-8.49,3.92-11.68,5.51-1.4.7-2.65.78-4.09.09-10.06-4.8-20.15-9.54-30.22-14.33-.51-.24-.97-.59-1.43-.93-.38-.29-.46-.84-.16-1.21.55-.7,11.07-6.09,15.51-8.24Z"></path><path class="cls-1" d="m44.52,92.13c4.46-3.27,7.08-5.11,11.51-8.33,1.37-1,2.6-.25,4.06.44,3.97,1.87,10.53,4.94,14.45,6.91,1.42.71,2.62.82,4.03.05,1.66-.9,6.6-3.41,6.6-3.41,0,0,.16,12.5.19,17.73,0,1.19-.64,1.75-1.6,2.2-1.44.68-4.05,1.96-5.71,2.7-.89.4-1.9.39-2.78-.03-8.24-3.9-16.85-7.88-25.03-11.81-2.24-1.08-4.63-1.9-6.71-3.29-.73-.48-.9-1.34-.36-2.02.41-.51,1-.91,1.35-1.16Z"></path><path class="cls-1" d="m102.31,109.61c-3.26,0-7.43.02-10.69,0-2.9-.03-3.19-1.1-3.23-3.91-.07-5-.04-10-.01-15.01.01-2.05.74-3.14,3.09-3.25.4-.02,1.25-.06,1.25-.06,0,0,0-1.36,0-1.9-.03-1.13,0-2.27.08-3.4.39-5.09,3.98-8.79,8.79-9.1,5.12-.33,9.25,2.91,10.22,8.05.15.81.29,1.65.27,2.48-.02,1.15.1,3.55.1,3.55,0,0,1.22,0,2.25.06,2.12.12,1.82,1.89,1.82,3.19.01,5.23.05,10.92-.01,16.15-.03,2.49-.63,3.08-3.18,3.13-3.41.06-7.34.02-10.75.02h0Zm6.01-22.55s.03-1.59,0-2.37c-.12-3.18.29-4.36-1.81-6.55-1.74-1.82-4.61-2.36-6.86-1.12-2.49,1.37-3.62,2.75-3.24,8.36.06,1.06.04,1.81.04,1.81l11.88-.13Z"></path></g></g></svg>